<svg xmlns="http://www.w3.org/2000/svg" width="32" height="50" viewBox="0 0 32 50" fill="currentColor">
    <path d="M31.1395 6.34861C30.9171 1.33748 29.1553 0 23.4909 0C17.8265 0 16.0654 1.33766 15.8475 6.34861C15.8402 6.48137 15.8413 27.4023 15.8484 38.0341C14.9289 37.796 14.0124 37.5536 13.1257 37.2035C11.3008 36.4831 10.1731 35.1737 9.71853 33.2645C9.3222 31.6008 9.26791 29.9123 9.26253 28.214L9.26164 27.3597C9.26289 27.1074 9.26432 26.8555 9.25967 26.6036C10.6225 25.9568 11.0265 24.8797 11.0165 23.3919C11.007 21.9533 11.0122 20.5146 11.0177 19.0761L11.0226 17.5637C11.0261 16.3707 10.5947 15.3329 9.74057 14.4794L9.0916 13.8312C8.22709 12.9674 7.36239 12.1034 6.50003 11.2379C5.75986 10.4969 5.15533 10.4836 4.40692 11.022C4.37359 10.9679 4.33561 10.9159 4.28884 10.869C3.96902 10.5492 3.45103 10.5492 3.13138 10.869L0.239869 13.7607C-0.0799564 14.0806 -0.0799564 14.5989 0.239869 14.9183C0.289142 14.9674 0.344328 15.0065 0.401305 15.0407C0.0331025 15.5981 0.0418825 16.2904 0.539807 16.7903L0.72113 16.972C1.89848 18.1507 3.0753 19.3294 4.2582 20.5019C4.34224 20.5861 4.36804 20.647 4.36804 20.7617L4.36266 21.4877C4.35532 22.2543 4.34689 23.047 4.39688 23.8294C4.47554 25.0746 4.9482 26.0274 6.15637 26.585C6.17967 27.1397 6.16193 27.6788 6.16461 28.214C6.16461 28.2184 6.16461 28.2229 6.16461 28.2274C6.16461 28.2391 6.16444 28.2509 6.16444 28.2625H6.16497C6.13613 29.6199 6.19167 30.9748 6.35024 32.3262C6.82183 36.3453 8.81585 39.1417 12.7571 40.4197C13.7749 40.7497 14.8098 41.0038 15.8513 41.2297C15.8531 42.9831 15.8554 44.0532 15.8579 44.0885C16.0955 47.7407 17.5712 48.99 21.9421 49.1973C22.4221 49.2226 22.9326 49.2328 23.478 49.2328C24.0234 49.2328 24.5394 49.2227 25.0143 49.1973C29.3856 48.9898 30.8664 47.7405 31.0988 44.0885C31.1137 43.876 31.1447 6.5258 31.1395 6.34843V6.34861ZM8.43905 23.468C8.43905 23.9682 8.15416 24.2809 7.69548 24.2829H7.69064C7.49355 24.2829 7.321 24.2141 7.18967 24.084C7.03881 23.9337 6.95531 23.7115 6.95531 23.4591L6.95406 22.8558C6.9528 22.1207 6.95065 21.3854 6.95818 20.6506C6.96588 19.9246 6.70966 19.2968 6.19723 18.7846L5.63641 18.225C5.26265 17.8506 4.88818 17.4761 4.51102 17.1051C4.14676 16.7467 3.77927 16.3918 3.4125 16.0389L3.23476 15.8677L5.36048 13.7622L6.07575 14.4788C6.66989 15.0751 7.26403 15.6717 7.86587 16.2599C8.26006 16.6446 8.44281 17.0834 8.44066 17.6402C8.436 18.9353 8.43726 20.2305 8.43816 21.5258L8.43887 23.4678L8.43905 23.468ZM29.5047 8.8969C29.3209 11.7784 28.1516 12.7642 24.6993 12.9278C24.3239 12.9479 23.9168 12.9557 23.4859 12.9557C23.055 12.9557 22.6518 12.9477 22.2727 12.9278C18.8204 12.764 17.6549 11.7784 17.4673 8.8969C17.4554 8.72938 17.4433 8.55773 17.4433 8.37803C17.4433 8.2304 17.4511 8.0867 17.4594 7.94695C17.631 3.9999 19.02 2.94622 23.4861 2.94622C27.9522 2.94622 29.3411 3.9999 29.5167 7.94695C29.5208 8.0867 29.5287 8.23022 29.5287 8.37803C29.5287 8.55756 29.5167 8.7292 29.5049 8.8969H29.5047Z" fill="white"/>
    <path d="M21.3665 6.51562C20.8199 6.51562 20.377 6.96265 20.377 7.50947C20.377 8.05628 20.8201 8.50313 21.3665 8.50313C21.9173 8.50313 22.3606 8.05611 22.3606 7.50947C22.3606 6.96283 21.9171 6.51562 21.3665 6.51562Z" fill="white"/>
    <path d="M25.6052 6.51562C25.0584 6.51562 24.6113 6.96265 24.6113 7.50947C24.6113 8.05628 25.0584 8.50313 25.6052 8.50313C26.152 8.50313 26.5989 8.05611 26.5989 7.50947C26.5989 6.96283 26.152 6.51562 25.6052 6.51562Z" fill="white"/>
</svg>