<svg width="105" height="58" viewBox="0 0 105 58" fill="currentColor" xmlns="http://www.w3.org/2000/svg">
<path d="M3.72503 22.3526H0V13.6607C0 11.2548 0.847137 9.20498 2.54194 7.51024C4.23621 5.81603 6.28614 4.96875 8.69227 4.96875C11.0984 4.96875 13.1483 5.81621 14.8426 7.51024C16.5374 9.20498 17.3845 11.2548 17.3845 13.6607V22.3526H13.6595V13.6607C13.6595 12.2899 13.1741 11.1192 12.2043 10.1488C11.2342 9.17882 10.0635 8.69399 8.69227 8.69399C7.32105 8.69399 6.15032 9.179 5.18028 10.1488C4.21023 11.119 3.72503 12.2899 3.72503 13.6607V22.3526Z" fill="white"/>
<path d="M25.0489 17.1725C26.019 18.1425 27.1897 18.6274 28.5609 18.6274C29.9321 18.6274 31.1029 18.1424 32.0729 17.1725L32.0919 17.1532L34.731 19.7918L34.7113 19.8111C33.017 21.5057 30.9665 22.3526 28.5609 22.3526C26.1553 22.3526 24.1049 21.5055 22.4106 19.8111C20.7158 18.1166 19.8687 16.0665 19.8687 13.6607C19.8687 11.2548 20.7158 9.20498 22.4106 7.51023C24.1054 5.81549 26.1548 4.96875 28.5609 4.96875C30.967 4.96875 33.017 5.81621 34.7113 7.51023C36.4061 9.20498 37.2532 11.2548 37.2532 13.6607C37.2532 14.0747 37.2145 14.4888 37.1365 14.9025H23.7492C23.9561 15.756 24.3894 16.5128 25.0491 17.1725H25.0489ZM32.0727 10.149C31.1027 9.179 29.932 8.69417 28.5607 8.69417C27.1895 8.69417 26.0188 9.17918 25.0487 10.149C24.7257 10.4728 24.4602 10.8155 24.2532 11.1772H32.8681C32.6611 10.8155 32.3956 10.4728 32.0725 10.149H32.0727Z" fill="white"/>
<path d="M46.2362 13.6607L39.7363 4.96875H44.1408L48.4286 10.7116L52.7164 4.96875H57.1209L50.6407 13.6607L57.1209 22.3526H52.7164L48.4286 16.6098L44.1408 22.3526H39.7363L46.2362 13.6607Z" fill="white"/>
<path d="M63.3295 8.69193V13.6586C63.3295 15.0296 63.8149 16.2001 64.7848 17.1705C65.7548 18.1405 66.9255 18.6253 68.2968 18.6253V22.3505C65.8906 22.3505 63.8407 21.5034 62.1464 19.8091C60.4516 18.1145 59.6045 16.0645 59.6045 13.6586V0H63.3295V4.96669H68.2968V8.69193H63.3295Z" fill="white"/>
<path d="M14.8426 46.6236C13.1483 48.3182 11.0979 49.1651 8.69227 49.1651C6.28668 49.1651 4.23621 48.318 2.54194 46.6236C0.847137 44.9291 0 42.879 0 40.4732C0 38.0673 0.847137 36.0175 2.54194 34.3227C4.23621 32.6285 6.28614 31.7812 8.69227 31.7812C11.0984 31.7812 13.1483 32.6287 14.8426 34.3227L14.8623 34.3424L12.2233 36.981L12.2043 36.9613C11.2342 35.9913 10.0635 35.5065 8.69227 35.5065C7.32105 35.5065 6.15032 35.9915 5.18028 36.9613C4.21023 37.9315 3.72503 39.1024 3.72503 40.4732C3.72503 41.844 4.21041 43.0147 5.18028 43.985C6.15032 44.955 7.32105 45.4399 8.69227 45.4399C10.0635 45.4399 11.2342 44.9549 12.2043 43.985L12.2233 43.9657L14.8623 46.6043L14.8426 46.6236Z" fill="white"/>
<path d="M19.8676 40.4713V49.1632H16.1426V26.8125H19.8676V33.3121C21.3039 32.2904 22.9594 31.7792 24.8348 31.7792C27.2404 31.7792 29.2909 32.6267 30.9852 34.3207C32.68 36.0154 33.5271 38.0653 33.5271 40.4711V49.1631H29.8021V40.4711C29.8021 39.1003 29.3167 37.9296 28.3468 36.9593C27.3768 35.9893 26.2061 35.5044 24.8348 35.5044C23.4636 35.5044 22.2929 35.9894 21.3229 36.9593C20.3528 37.9295 19.8676 39.1005 19.8676 40.4713Z" fill="white"/>
<path d="M53.3953 49.1651H49.6703V47.6322C48.234 48.6539 46.5784 49.1651 44.703 49.1651C42.2969 49.1651 40.247 48.3177 38.5527 46.6236C36.8579 44.9289 36.0107 42.879 36.0107 40.4732C36.0107 38.0673 36.8579 36.0173 38.5527 34.3227C40.247 32.6282 42.2969 31.7812 44.703 31.7812C47.1091 31.7812 49.1591 32.6284 50.8533 34.3227C52.5482 36.0173 53.3953 38.0673 53.3953 40.4732V49.1651ZM44.703 35.5063C43.332 35.5063 42.1611 35.9913 41.191 36.9612C40.221 37.9313 39.7358 39.1018 39.7358 40.473C39.7358 41.8442 40.2212 43.0145 41.191 43.9849C42.1611 44.9549 43.3318 45.4397 44.703 45.4397C46.0742 45.4397 47.245 44.9547 48.215 43.9849C49.1851 43.0147 49.6703 41.8438 49.6703 40.473C49.6703 39.1022 49.1849 37.9315 48.215 36.9612C47.245 35.9911 46.0742 35.5063 44.703 35.5063Z" fill="white"/>
<path d="M55.8789 40.4732C55.8789 38.0673 56.726 36.0175 58.4209 34.3227C60.1157 32.628 62.165 31.7812 64.5712 31.7812V35.5065C63.2001 35.5065 62.0292 35.9915 61.0592 36.9613C60.0891 37.9315 59.6039 39.1024 59.6039 40.4732V49.1651H55.8789V40.4732Z" fill="white"/>
<path d="M80.7142 47.6325C79.2779 48.6543 77.6224 49.1651 75.747 49.1651C73.3408 49.1651 71.2909 48.318 69.5966 46.6236C67.9018 44.9291 67.0547 42.879 67.0547 40.4732C67.0547 38.0673 67.9018 36.0175 69.5966 34.3227C71.2909 32.6285 73.3408 31.7812 75.747 31.7812C78.1531 31.7812 80.203 32.6287 81.8973 34.3227C83.5921 36.0175 84.4392 38.0673 84.4392 40.4732V49.1651C84.4392 51.571 83.5921 53.6208 81.8973 55.3156C80.203 57.0098 78.1525 57.857 75.747 57.857V54.1318C77.118 54.1318 78.2889 53.6468 79.2589 52.677C80.229 51.7068 80.7142 50.5359 80.7142 49.1651V47.6325ZM75.747 45.4399C77.118 45.4399 78.2889 44.9549 79.2589 43.985C80.229 43.0148 80.7142 41.8443 80.7142 40.4732C80.7142 39.102 80.2288 37.9317 79.2589 36.9613C78.2889 35.9913 77.1182 35.5065 75.747 35.5065C74.3757 35.5065 73.205 35.9915 72.235 36.9613C71.2649 37.9315 70.7797 39.1024 70.7797 40.4732C70.7797 41.844 71.2651 43.0147 72.235 43.985C73.205 44.955 74.3757 45.4399 75.747 45.4399Z" fill="white"/>
<path d="M92.1036 43.985C93.0737 44.955 94.2444 45.4399 95.6156 45.4399C96.9868 45.4399 98.1576 44.9549 99.1276 43.985L99.1466 43.9657L101.786 46.6043L101.766 46.6236C100.072 48.3182 98.0212 49.1651 95.6156 49.1651C93.21 49.1651 91.1596 48.318 89.4653 46.6236C87.7705 44.9291 86.9233 42.879 86.9233 40.4732C86.9233 38.0673 87.7705 36.0175 89.4653 34.3227C91.1596 32.6285 93.2095 31.7812 95.6156 31.7812C98.0217 31.7812 100.072 32.6287 101.766 34.3227C103.461 36.0175 104.308 38.0673 104.308 40.4732C104.308 40.8872 104.269 41.3013 104.191 41.715H90.8039C91.0108 42.5685 91.4439 43.3253 92.1036 43.985ZM99.1274 36.9613C98.1574 35.9913 96.9867 35.5065 95.6154 35.5065C94.2442 35.5065 93.0735 35.9915 92.1034 36.9613C91.7804 37.2851 91.5149 37.6278 91.3079 37.9896H99.9228C99.7158 37.6278 99.4503 37.2851 99.1272 36.9613H99.1274Z" fill="white"/>
</svg>
